<?xml version="1.0" encoding="utf-8"?>
<!-- Generator: Adobe Illustrator 24.0.1, SVG Export Plug-In . SVG Version: 6.00 Build 0)  -->
<svg version="1.1" xmlns="http://www.w3.org/2000/svg" xmlns:xlink="http://www.w3.org/1999/xlink" x="0px" y="0px"
	 viewBox="0 0 197.53 46.24" style="enable-background:new 0 0 197.53 46.24;" xml:space="preserve">
<style type="text/css">
	.st0{fill:#E30613;}
	.st1{fill:#005FA8;}
</style>
<g id="Rojos">
	<g>
		<path class="st0" d="M106.08,10.7c0.87,0,1.61,0.3,2.21,0.89c0.6,0.59,0.9,1.32,0.9,2.19c0,0.85-0.3,1.57-0.91,2.17
			c-0.61,0.6-1.34,0.91-2.19,0.91c-0.85,0-1.59-0.3-2.21-0.91c-0.62-0.6-0.93-1.33-0.93-2.17c0-0.87,0.3-1.6,0.91-2.19
			C104.46,11,105.2,10.7,106.08,10.7z"/>
		<path class="st0" d="M155.35,31.05h-14.62c0,0.07-0.01,0.19-0.03,0.35c-0.05,1.65-0.08,2.86-0.08,3.64c0,3.45,0.55,5.93,1.65,7.45
			c1.1,1.51,2.88,2.27,5.36,2.27c1.77,0,3.28-0.43,4.54-1.3c1.26-0.87,2.08-2.04,2.47-3.53h1.25c-0.27,1.88-1.23,3.39-2.88,4.54
			c-1.65,1.15-3.7,1.73-6.14,1.73c-3.24,0-5.84-1.04-7.8-3.11c-1.96-2.07-2.95-4.8-2.95-8.2c0-3.56,1-6.45,2.99-8.68
			c1.99-2.23,4.56-3.34,7.71-3.34c2.57,0,4.63,0.74,6.2,2.22c1.57,1.48,2.35,3.44,2.35,5.88V31.05z M150.94,29.96
			c0.02-0.28,0.03-0.55,0.04-0.8c0.01-0.25,0.01-0.52,0.01-0.82c0-1.36-0.4-2.43-1.21-3.2c-0.81-0.77-1.92-1.15-3.36-1.15
			c-1.68,0-2.98,0.49-3.9,1.47c-0.92,0.98-1.49,2.48-1.7,4.5H150.94z"/>
		<path class="st0" d="M163.29,22.18c0.18,0.71,0.31,1.4,0.41,2.07c0.1,0.67,0.15,1.35,0.15,2.02c0,0.11-0.01,0.28-0.03,0.53
			c-0.02,0.25-0.03,0.43-0.03,0.56c1.13-1.49,2.44-2.62,3.92-3.4c1.48-0.78,3.05-1.17,4.71-1.17c1.68,0,3.1,0.42,4.26,1.25
			c1.16,0.83,1.86,1.94,2.11,3.32c1.13-1.49,2.44-2.62,3.91-3.4c1.48-0.78,3.05-1.17,4.71-1.17c2.19,0,3.84,0.61,4.94,1.82
			c1.1,1.21,1.65,3.01,1.65,5.4v10.46c0,1.66,0.21,2.73,0.64,3.2c0.42,0.47,1.21,0.7,2.36,0.7h0.53v1.09h-10.91v-1.09h0.53
			c1.15,0,1.94-0.23,2.36-0.7c0.42-0.47,0.64-1.53,0.64-3.2V29.64c0-1.89-0.31-3.21-0.94-3.94c-0.63-0.73-1.69-1.1-3.2-1.1
			c-1.65,0-3.22,0.58-4.74,1.74c-1.51,1.16-2.27,2.12-2.27,2.88v11.25c0,1.66,0.22,2.73,0.65,3.2c0.43,0.47,1.23,0.7,2.4,0.7v1.09
			h-10.43v-1.09h0.53c1.15,0,1.94-0.23,2.36-0.7c0.42-0.47,0.64-1.53,0.64-3.2V29.64c0-1.89-0.31-3.21-0.94-3.94
			c-0.63-0.73-1.69-1.1-3.2-1.1c-1.7,0-3.33,0.62-4.88,1.86c-1.56,1.24-2.34,2.25-2.34,3.03v10.99c0,1.66,0.21,2.73,0.64,3.2
			c0.42,0.47,1.2,0.7,2.34,0.7h0.56v1.09H156.6v-1.09c0.05,0,0.15,0.01,0.28,0.03c0.13,0.02,0.23,0.03,0.28,0.03
			c0.81,0,1.47-0.21,1.96-0.64c0.5-0.42,0.74-0.97,0.74-1.65v-1.67V28.23c0-1.56-0.17-2.57-0.5-3.05c-0.34-0.48-1.02-0.72-2.04-0.72
			h-0.72v-0.9c1.19-0.12,2.34-0.3,3.45-0.52C161.17,22.82,162.25,22.54,163.29,22.18z"/>
		<path class="st0" d="M132.66,41.43c-0.09-0.11-0.14-0.17-0.16-0.19l-8.18-9.48l6.29-4.88l0.21-0.16c1.63-1.26,2.94-1.95,3.93-2.07
			v-1.09h-8.47v1.09c0.62,0,1.11,0.11,1.47,0.32c0.36,0.21,0.54,0.5,0.54,0.88c0,0.42-0.21,0.93-0.64,1.51
			c-0.42,0.58-0.99,1.15-1.7,1.7l-5.49,4.11V8.01c-1.13,0.28-2.31,0.54-3.52,0.76c-1.21,0.22-2.47,0.42-3.78,0.6v0.93h0.61
			c0.99,0,1.65,0.24,1.99,0.72c0.34,0.48,0.5,1.49,0.5,3.03v26.44v1.67c0,0.03,0,0.06,0,0.09c-0.07,0.59-0.49,1.67-2.54,2.01l0,0
			c-0.49,0.11-1.15,0.12-1.41,0.12v1.09h11.68v-1.14h-0.72c-1.08,0-1.82-0.23-2.22-0.7c-0.4-0.47-0.6-1.52-0.6-3.15v-5.6l1.09-0.77
			l6.45,7.62c0.02,0,0.04,0.02,0.05,0.05c0.44,0.55,0.66,1,0.66,1.35c0,0.42-0.2,0.73-0.6,0.92c-0.4,0.19-1.05,0.28-1.95,0.28v1.14
			h10.59v-1.14C135.59,44.25,134.22,43.28,132.66,41.43z"/>
	</g>
</g>
<g id="Azules">
	<path class="st1" d="M111.76,44.37c-1.15,0-1.94-0.24-2.37-0.71c-0.43-0.47-0.65-1.54-0.65-3.22V22.03
		c-1.22,0.32-2.48,0.6-3.77,0.83c-1.29,0.23-2.63,0.42-4.01,0.56v0.99h0.83c1.11,0,1.84,0.23,2.18,0.68
		c0.34,0.45,0.51,1.47,0.51,3.03v12.32v1.68c0,0.71-0.27,1.27-0.82,1.68c-0.4,0.3-0.91,0.49-1.52,0.57
		c-0.19,0.03-0.38,0.05-0.56,0.06v0c-0.76,0.06-1.63,0.01-2.21-0.05c-0.22-0.02-0.42-0.04-0.61-0.07c-0.01,0-0.02,0-0.02,0l0,0
		c-0.07-0.01-0.14-0.02-0.2-0.03c-0.28-0.04-0.53-0.11-0.76-0.21c-1.16-0.43-1.44-1.15-1.49-1.57v-2.34v-0.41V7.76
		c-1.2,0.32-2.44,0.59-3.7,0.81c-1.27,0.22-2.59,0.41-3.97,0.55v0.94h0.78c1.13,0,1.88,0.24,2.25,0.72c0.37,0.48,0.55,1.5,0.55,3.05
		v11.94c-1.33-1.14-2.54-1.95-3.63-2.42c-1.09-0.47-2.29-0.71-3.58-0.71c-3.27,0-5.91,1.1-7.94,3.31c-2.03,2.21-3.04,5.12-3.04,8.74
		c0,3.38,0.96,6.15,2.87,8.31c1.91,2.16,4.36,3.23,7.33,3.23c1.53,0,2.95-0.3,4.27-0.9c1.32-0.6,2.56-1.5,3.73-2.71
		c0,0.55,0.04,1.14,0.13,1.75c0.09,0.61,0.22,1.23,0.38,1.86c0.2-0.03,0.4-0.07,0.6-0.1c1.34-0.21,4.67-0.68,7.5-0.68h11.51v-1.1
		H111.76z M92.16,41.03c-0.92,1.19-1.93,2.09-3.05,2.7c-1.12,0.61-2.31,0.91-3.57,0.91c-2.1,0-3.77-0.87-5.02-2.62
		c-1.25-1.75-1.87-4.13-1.87-7.16c0-3.31,0.66-5.95,1.99-7.91c1.33-1.96,3.08-2.94,5.25-2.94c1.11,0,2.2,0.3,3.27,0.9
		c1.07,0.6,2.07,1.47,3,2.6V41.03z"/>
	<path class="st1" d="M75.58,9.9L75.58,9.9c-0.52,0.36-1.03,0.69-1.51,0.98c-0.97,0.61-1.76,1.07-2.25,1.28
		c-1.63,0.85-2.69,1.23-2.69,1.23v0c-3.58,1.57-10.73,4.45-20.14,6.95c-2.53,0.35-5,0.92-7.2,1.53l0,0
		c-1.89,0.46-4.02,1.18-5.84,1.85L29.69,8.61h-1.43l-11,26.49C11.69,38.82,0,40.47,0,40.47c8.8,0.24,13.89-1.27,15.86-2.03
		l-0.01,0.02c-0.81,1.98-1.65,3.37-2.52,4.17c-0.87,0.8-2.01,1.33-3.43,1.58v1.26h10.93v-1.26c-1.24-0.11-2.19-0.43-2.87-0.98
		c-0.67-0.54-1.01-1.26-1.01-2.15c0-0.39,0.06-0.83,0.17-1.31c0.12-0.48,0.28-0.99,0.5-1.52l0.28-0.65
		c3.43-1.52,6.98-4.55,6.98-4.55c2.38-2.19,5.24-4.23,7.14-5.51l1.37,3.31h-0.03l0.64,1.55h0.03l3.15,7.8
		c0.18,0.46,0.31,0.86,0.4,1.2c0.09,0.34,0.13,0.63,0.13,0.88c0,0.64-0.23,1.12-0.7,1.44c-0.47,0.32-1.17,0.48-2.1,0.48h-1.32v1.26
		h13.39h0.5h10.7v-1.1h-0.57c-1.15,0-1.94-0.24-2.37-0.71c-0.43-0.47-0.65-1.54-0.65-3.22V29.38c0-0.78,0.79-1.81,2.37-3.07
		c1.58-1.26,3.21-1.9,4.9-1.9c1.42,0,2.43,0.38,3.04,1.15c0.61,0.77,0.92,2.09,0.92,3.98v10.9c0,1.67-0.21,2.75-0.63,3.22
		c-0.42,0.47-1.2,0.71-2.33,0.71h-0.57v1.1h11.2v-1.1h-0.54c-1.17,0-1.96-0.24-2.4-0.71c-0.43-0.47-0.65-1.54-0.65-3.22V29.91
		c0-2.4-0.55-4.22-1.66-5.44c-1.1-1.22-2.76-1.83-4.97-1.83c-1.65,0-3.23,0.4-4.74,1.19c-1.51,0.79-2.83,1.93-3.96,3.41
		c0-0.12,0.01-0.31,0.03-0.56c0.02-0.25,0.03-0.43,0.03-0.53c0-0.68-0.05-1.35-0.13-2.03c-0.09-0.68-0.23-1.37-0.43-2.08
		c-1.13,0.36-2.28,0.65-3.46,0.87c-1.18,0.22-2.39,0.4-3.65,0.52v0.91h0.83c1.09,0,1.82,0.24,2.17,0.71
		c0.35,0.47,0.52,1.5,0.52,3.09v12.32v1.68c0,0-0.4,2.1-3.03,2.08c-1.2-0.09-2.16-0.45-2.87-1.1c-0.71-0.64-1.56-2.15-2.54-4.54
		l-5.66-13.68c4.49-2.14,11.89-4.35,12.58-4.55c1.1-0.15,13.44-1.83,21.17-4.89c0.11-0.05,1.76-0.74,3.41-1.8
		c3.63-2.35,12.45-8.41,15.87-13.69C89.46-0.03,80.97,6.31,75.58,9.9z M19.8,33.01l0.89-2.16h-0.02l3.08-7.4l0,0h0l3.29-7.91
		l2.89,6.98l0,0l1.28,3.09C26.77,27.49,21.96,31.23,19.8,33.01z"/>
</g>
</svg>
