<?xml version="1.0" encoding="utf-8"?>
<!-- Generator: Adobe Illustrator 24.0.1, SVG Export Plug-In . SVG Version: 6.00 Build 0)  -->
<svg version="1.1" xmlns="http://www.w3.org/2000/svg" xmlns:xlink="http://www.w3.org/1999/xlink" x="0px" y="0px"
	 viewBox="0 0 221 56" style="enable-background:new 0 0 221 56;" xml:space="preserve">
<style type="text/css">
	.st0{fill:url(#SVGID_1_);}
	.st1{fill:url(#SVGID_2_);}
	.st2{fill:url(#SVGID_3_);}
	.st3{fill:url(#SVGID_4_);}
	.st4{fill:#005FA8;}
	.st5{fill:#EB752B;}
</style>
<g id="Rojos">
</g>
<g id="Azules">
	<g>
		<g>
			<linearGradient id="SVGID_1_" gradientUnits="userSpaceOnUse" x1="0" y1="32.7506" x2="119.6726" y2="32.7506">
				<stop  offset="0" style="stop-color:#FFFFFF"/>
				<stop  offset="1" style="stop-color:#ED7F35"/>
			</linearGradient>
			<path class="st0" d="M119.67,22.89c-5.59-6.58-18.25,0.67-18.85,1.02c-10.19,0.94-20.64,6.44-20.64,6.44
				c-2.28,1.21-6.57-0.4-6.57-0.4C40.9,12.38,0,45.36,0,45.36c32.18-18.1,59.4-18.1,59.4-18.1c8.85-0.13,20.11,5.36,20.11,5.36
				c4.95,2.38,7.91-0.27,7.91-0.27c2.74-2.09,12.87-8.13,13.39-8.43C106.22,23.05,119.67,22.89,119.67,22.89z"/>
			<linearGradient id="SVGID_2_" gradientUnits="userSpaceOnUse" x1="98.9932" y1="34.9983" x2="125.9456" y2="34.9983">
				<stop  offset="0" style="stop-color:#FFFFFF"/>
				<stop  offset="1" style="stop-color:#ED7F35"/>
			</linearGradient>
			<path class="st1" d="M109.65,32.93c-4.02,5.83-10.66,6.94-10.66,6.94c13.58,3.02,17.4-1.71,17.4-1.71
				c2.82-1.71,9.55-8.75,9.55-8.75C113.58,27.9,109.65,32.93,109.65,32.93z"/>
			<linearGradient id="SVGID_3_" gradientUnits="userSpaceOnUse" x1="11.2746" y1="39.7976" x2="147.9702" y2="39.7976">
				<stop  offset="0" style="stop-color:#FFFFFF"/>
				<stop  offset="0.0769" style="stop-color:#CFE1EF"/>
				<stop  offset="0.1666" style="stop-color:#9FC3DE"/>
				<stop  offset="0.2614" style="stop-color:#74A8D0"/>
				<stop  offset="0.3597" style="stop-color:#5091C3"/>
				<stop  offset="0.4625" style="stop-color:#337FB9"/>
				<stop  offset="0.5713" style="stop-color:#1C71B2"/>
				<stop  offset="0.6888" style="stop-color:#0C67AC"/>
				<stop  offset="0.8211" style="stop-color:#0361A9"/>
				<stop  offset="1" style="stop-color:#005FA8"/>
			</linearGradient>
			<path class="st2" d="M115.36,41.37c0,0-7.22,7.64-23.77-0.19c18.97-15.94,32.44-16.51,32.44-16.51C100.1,24.48,87.03,35,87.03,35
				c-0.9,1.01-1.91,1.92-2.92,2.71c-18.61-9.79-30.88-5.36-30.88-5.36c-2.15,0.8-25.21,8.32-25.21,8.32l21.45-4.66
				c17.38-4.72,31.15,0.29,34.58,1.74c-3.14,2.46-6.28,3.81-6.28,3.81c-2.95,1.56-17.32,3.71-17.95,3.8
				c-0.34-0.55-9.38-3.37-9.38-3.37c-8.98-3.65-17.57,1.5-17.57,1.5c-2.68,1.05-14.85,7.71-21.6,11.43
				c16.14-7.37,47.75-9.5,48.54-9.55c16.55,6.03,28.11-1.39,30.75-3.35c3.51,3.26,13.55,10.97,24.79,4.99
				c0,0,22.25-12.85,32.61-12.01C147.97,35,134.55,30.01,115.36,41.37z"/>
			<linearGradient id="SVGID_4_" gradientUnits="userSpaceOnUse" x1="49.7145" y1="39.3582" x2="77.3709" y2="39.3582">
				<stop  offset="0" style="stop-color:#FFFFFF"/>
				<stop  offset="1" style="stop-color:#ED7F35"/>
			</linearGradient>
			<path class="st3" d="M77.37,39.72c0,0-7.69-7.13-16.79-2.27c0,0-6.64,1.71-10.86,0c0,0,7.34,4.04,8.95,4.53
				C58.67,41.99,63.29,45.3,77.37,39.72z"/>
		</g>
		<g>
			<path class="st4" d="M195.42,24.8c0,1.01,0.13,1.66,0.39,1.95c0.26,0.29,0.73,0.43,1.42,0.43h0.34v0.66h-6.72v-0.65
				c0.04,0,0.1,0,0.16,0.01c0.07,0.01,0.16,0.01,0.27,0.01c0.52,0,0.93-0.13,1.23-0.38c0.3-0.25,0.45-0.59,0.45-1.01V24.8v-7.45
				c0-0.96-0.11-1.58-0.32-1.87c-0.21-0.29-0.64-0.43-1.3-0.43h-0.5v-0.55c0.75-0.08,1.48-0.18,2.19-0.31
				c0.7-0.13,1.4-0.31,2.08-0.52c0.12,0.43,0.2,0.85,0.26,1.26c0.05,0.41,0.08,0.82,0.08,1.23c0,0.06-0.01,0.17-0.02,0.32
				c-0.01,0.15-0.02,0.26-0.02,0.34c0.68-0.89,1.47-1.58,2.37-2.06c0.9-0.48,1.85-0.72,2.84-0.72c1.32,0,2.32,0.37,2.98,1.11
				c0.66,0.74,0.99,1.83,0.99,3.29v6.36c0,1.01,0.13,1.66,0.39,1.95c0.26,0.29,0.74,0.43,1.44,0.43h0.32v0.66h-6.72v-0.66h0.34
				c0.68,0,1.14-0.14,1.4-0.43c0.25-0.29,0.38-0.93,0.38-1.95v-6.59c0-1.14-0.18-1.94-0.55-2.41c-0.37-0.46-0.97-0.69-1.82-0.69
				c-1.01,0-1.99,0.38-2.94,1.15c-0.95,0.76-1.42,1.38-1.42,1.86V24.8z"/>
			<path class="st4" d="M207.08,21.12c0-2.08,0.64-3.78,1.93-5.1c1.29-1.32,2.96-1.98,5.01-1.98c2.06,0,3.73,0.66,5.03,1.99
				c1.3,1.33,1.95,3.04,1.95,5.14c0,2.1-0.65,3.81-1.95,5.14c-1.3,1.32-2.98,1.99-5.02,1.99c-2.06,0-3.73-0.66-5.01-1.99
				C207.72,24.98,207.08,23.25,207.08,21.12z M218.22,21.18c0-2.28-0.33-3.93-0.99-4.93c-0.66-1.01-1.71-1.51-3.15-1.51
				c-1.46,0-2.54,0.49-3.23,1.47c-0.69,0.98-1.03,2.51-1.03,4.59c0,2.3,0.35,4.02,1.05,5.14c0.7,1.12,1.77,1.68,3.21,1.68
				c1.36,0,2.38-0.54,3.08-1.63C217.87,24.89,218.22,23.29,218.22,21.18z"/>
			<path class="st4" d="M189.92,27.17c-0.69,0-1.17-0.14-1.43-0.43c-0.26-0.29-0.39-0.93-0.39-1.95V13.67
				c-0.74,0.19-1.5,0.36-2.28,0.5c-0.78,0.14-1.59,0.25-2.42,0.34v0.6h0.5c0.67,0,1.11,0.14,1.32,0.41
				c0.21,0.27,0.31,0.89,0.31,1.83v7.44v1.02c0,0.43-0.17,0.77-0.5,1.02c-0.24,0.18-0.55,0.29-0.92,0.34
				c-0.12,0.02-0.23,0.03-0.34,0.04v0c-0.46,0.04-0.99,0-1.34-0.03c-0.13-0.01-0.25-0.02-0.37-0.04c-0.01,0-0.01,0-0.01,0v0
				c-0.04-0.01-0.08-0.01-0.12-0.02c-0.17-0.02-0.32-0.06-0.46-0.12c-0.7-0.26-0.87-0.7-0.9-0.95v-1.42v-0.25V5.05
				c-0.73,0.19-1.47,0.36-2.24,0.49c-0.76,0.13-1.56,0.25-2.4,0.33v0.57h0.47c0.68,0,1.14,0.15,1.36,0.44
				c0.22,0.29,0.33,0.9,0.33,1.84v7.22c-0.8-0.69-1.53-1.18-2.2-1.46c-0.66-0.29-1.38-0.43-2.16-0.43c-1.97,0-3.57,0.67-4.8,2
				c-1.23,1.34-1.84,3.1-1.84,5.28c0,2.05,0.58,3.72,1.73,5.02c1.16,1.3,2.63,1.95,4.43,1.95c0.92,0,1.78-0.18,2.58-0.54
				c0.8-0.36,1.55-0.91,2.25-1.64c0,0.33,0.03,0.69,0.08,1.06c0.05,0.37,0.13,0.75,0.23,1.12c0.12-0.02,0.24-0.04,0.36-0.06
				c0.81-0.13,2.82-0.41,4.53-0.41h6.96v-0.66H189.92z M178.07,25.15c-0.55,0.72-1.17,1.27-1.85,1.63c-0.68,0.37-1.4,0.55-2.16,0.55
				c-1.27,0-2.28-0.53-3.03-1.58c-0.75-1.05-1.13-2.5-1.13-4.33c0-2,0.4-3.6,1.2-4.78c0.8-1.18,1.86-1.78,3.17-1.78
				c0.67,0,1.33,0.18,1.98,0.54c0.65,0.36,1.25,0.89,1.81,1.57V25.15z"/>
			<path class="st5" d="M186.48,6.82c0.53,0,0.97,0.18,1.33,0.54c0.36,0.36,0.54,0.8,0.54,1.32c0,0.51-0.18,0.95-0.55,1.31
				c-0.37,0.37-0.81,0.55-1.32,0.55c-0.52,0-0.96-0.18-1.33-0.55c-0.37-0.37-0.56-0.8-0.56-1.31c0-0.52,0.18-0.96,0.55-1.32
				C185.5,7,185.95,6.82,186.48,6.82z"/>
			<path class="st4" d="M168.35,6.05L168.35,6.05c-0.32,0.22-0.63,0.42-0.92,0.6c-0.59,0.37-1.07,0.65-1.37,0.78
				c-1,0.52-1.64,0.75-1.64,0.75l0,0c-2.18,0.96-6.54,2.71-12.28,4.23c-1.54,0.21-3.05,0.56-4.39,0.94l0,0
				c-1.15,0.28-2.45,0.72-3.56,1.13l-3.81-9.21h-0.87l-6.71,16.15c-3.39,2.27-10.52,3.28-10.52,3.28c5.36,0.15,8.46-0.77,9.67-1.24
				l-0.01,0.01c-0.49,1.21-1,2.05-1.53,2.54c-0.53,0.49-1.23,0.81-2.09,0.96v0.77h6.66v-0.77c-0.75-0.07-1.34-0.26-1.75-0.59
				c-0.41-0.33-0.61-0.77-0.61-1.31c0-0.24,0.03-0.5,0.11-0.8c0.07-0.29,0.17-0.6,0.3-0.93l0.17-0.4c2.09-0.92,4.25-2.77,4.25-2.77
				c1.45-1.33,3.19-2.58,4.35-3.36l0.84,2.02h-0.02l0.39,0.94h0.02l1.92,4.76c0.11,0.28,0.19,0.53,0.25,0.73
				c0.05,0.21,0.08,0.39,0.08,0.54c0,0.39-0.14,0.68-0.43,0.88c-0.28,0.2-0.71,0.29-1.28,0.29h-0.8v0.77h8.16h0.3h6.52v-0.67h-0.34
				c-0.7,0-1.18-0.14-1.44-0.43c-0.26-0.29-0.39-0.94-0.39-1.96v-6.74c0-0.48,0.48-1.1,1.44-1.87c0.96-0.77,1.96-1.16,2.99-1.16
				c0.86,0,1.48,0.23,1.85,0.7c0.37,0.47,0.56,1.28,0.56,2.43v6.65c0,1.02-0.13,1.67-0.39,1.96c-0.26,0.29-0.73,0.43-1.42,0.43
				h-0.34v0.67h6.83v-0.67h-0.33c-0.71,0-1.2-0.14-1.46-0.43c-0.26-0.29-0.39-0.94-0.39-1.96v-6.42c0-1.47-0.34-2.57-1.01-3.31
				c-0.67-0.74-1.68-1.12-3.03-1.12c-1.01,0-1.97,0.24-2.89,0.72c-0.92,0.48-1.72,1.18-2.41,2.08c0-0.08,0.01-0.19,0.02-0.34
				c0.01-0.15,0.02-0.26,0.02-0.33c0-0.41-0.03-0.82-0.08-1.24c-0.05-0.41-0.14-0.84-0.26-1.27c-0.69,0.22-1.39,0.39-2.11,0.53
				c-0.72,0.14-1.46,0.24-2.22,0.32v0.55h0.51c0.67,0,1.11,0.14,1.32,0.43c0.21,0.29,0.32,0.91,0.32,1.88v7.51v1.03
				c0,0-0.25,1.28-1.85,1.27c-0.73-0.05-1.32-0.28-1.75-0.67c-0.43-0.39-0.95-1.31-1.55-2.77l-3.45-8.34
				c2.74-1.3,7.25-2.65,7.67-2.77c0.67-0.09,8.19-1.12,12.9-2.98c0.07-0.03,1.07-0.45,2.08-1.1c2.21-1.43,7.59-5.13,9.67-8.34
				C176.81,0,171.64,3.87,168.35,6.05z M134.35,20.14l0.54-1.32h-0.01l1.88-4.51l0,0h0l2.01-4.82l1.76,4.25l0,0l0.78,1.88
				C138.6,16.77,135.66,19.06,134.35,20.14z"/>
		</g>
	</g>
</g>
</svg>
